<?xml version="1.0" encoding="utf-8"?>
<!-- Generator: Adobe Illustrator 17.0.0, SVG Export Plug-In . SVG Version: 6.00 Build 0)  -->
<!DOCTYPE svg PUBLIC "-//W3C//DTD SVG 1.1//EN" "http://www.w3.org/Graphics/SVG/1.1/DTD/svg11.dtd">
<svg version="1.1" id="Layer_1" xmlns="http://www.w3.org/2000/svg" xmlns:xlink="http://www.w3.org/1999/xlink" x="0px" y="0px"
	 width="24px" height="24px" viewBox="0 0 24 24" enable-background="new 0 0 24 24" xml:space="preserve">
<path fill="#FFFFFF" d="M13.723,18.654l-3.61,3.609c-2.316,2.315-6.063,2.315-8.378,0C0.615,21.145,0,19.657,0,18.075
	c0-1.582,0.615-3.07,1.734-4.189L6.6,9.021c2.355-2.355,6.114-2.262,8.377,0c0.453,0.453,0.81,0.973,1.089,1.527l-1.593,1.592
	c-0.18-0.613-0.5-1.189-0.964-1.652c-1.448-1.448-3.93-1.51-5.439-0.001l-0.001,0.002l-4.867,4.865c-1.5,1.499-1.5,3.941,0,5.44
	c1.517,1.517,3.958,1.488,5.442,0l2.425-2.424C12.062,18.654,12.86,18.705,13.723,18.654z M13.884,1.736L10.31,5.312
	c0.847-0.05,1.655,0,2.653,0.283l2.393-2.389c1.498-1.502,3.94-1.5,5.44-0.001c1.517,1.518,1.486,3.959,0,5.442l-4.831,4.831
	l-0.003,0.002c-1.438,1.437-3.886,1.552-5.439-0.002c-0.473-0.474-0.785-1.042-0.956-1.643l-0.084,0.068l-1.517,1.515
	c0.28,0.556,0.635,1.075,1.088,1.528c2.245,2.245,6.004,2.374,8.378,0l4.832-4.831c2.314-2.316,2.316-6.062-0.001-8.377
	C19.946-0.583,16.196-0.575,13.884,1.736z"/>
</svg>
